<svg width="14" height="14" viewBox="0 0 14 14" fill="none" xmlns="http://www.w3.org/2000/svg">
<g clip-path="url(#clip0)">
<path fill-rule="evenodd" clip-rule="evenodd" d="M4.08301 12.2502C4.08301 11.6058 4.60534 11.0835 5.24967 11.0835C5.89401 11.0835 6.41634 11.6058 6.41634 12.2502C6.41634 12.8945 5.89401 13.4168 5.24967 13.4168C4.60534 13.4168 4.08301 12.8945 4.08301 12.2502Z" fill="black"/>
<path fill-rule="evenodd" clip-rule="evenodd" d="M10.5 12.2502C10.5 11.6058 11.0223 11.0835 11.6667 11.0835C12.311 11.0835 12.8333 11.6058 12.8333 12.2502C12.8333 12.8945 12.311 13.4168 11.6667 13.4168C11.0223 13.4168 10.5 12.8945 10.5 12.2502Z" fill="black"/>
<path fill-rule="evenodd" clip-rule="evenodd" d="M0 0.583333C0 0.261167 0.261167 0 0.583333 0H2.91667C3.1947 0 3.43409 0.196225 3.48866 0.46885L3.97858 2.91667H13.4167C13.5905 2.91667 13.7553 2.99421 13.8661 3.12816C13.9769 3.26211 14.0222 3.4385 13.9897 3.60927L13.0555 8.50781C12.9755 8.91066 12.7563 9.27252 12.4364 9.53007C12.118 9.78633 11.7201 9.92306 11.3116 9.91667H5.65171C5.24322 9.92306 4.84529 9.78633 4.52695 9.53007C4.20714 9.27263 3.98804 8.91095 3.90794 8.5083C3.90791 8.50814 3.90797 8.50847 3.90794 8.5083L2.93346 3.63953C2.92951 3.62343 2.92622 3.60706 2.92364 3.59046L2.43852 1.16667H0.583333C0.261167 1.16667 0 0.905499 0 0.583333ZM4.21209 4.08333L5.05216 8.28052C5.07883 8.41481 5.15188 8.53543 5.25852 8.62128C5.36517 8.70713 5.49861 8.75273 5.63549 8.75011L5.64667 8.75H11.3167L11.3278 8.75011C11.4647 8.75273 11.5982 8.70713 11.7048 8.62128C11.811 8.53583 11.8838 8.41593 11.9108 8.2824L12.7116 4.08333H4.21209Z" fill="black"/>
</g>
<defs>
<clipPath id="clip0">
<path d="M0 0H14V14H0V0Z" fill="white"/>
</clipPath>
</defs>
</svg>
